<?xml version="1.0" encoding="utf-8"?>
<svg xmlns="http://www.w3.org/2000/svg" viewBox="1.3 263.2624 365.0344 243.4256" width="365.034pt" height="243.426pt">
  <g transform="matrix(0.09765500575304031, 0, 0, -0.09236299991607666, 0.030480001121730993, 657.8034057617188)" fill="#ffffff" stroke="none" style="">
    <path d="M2240 4270 c-14 -5 -19 -8 -11 -9 9 -1 12 -10 9 -31 -4 -24 -2 -27 9 -18 19 15 20 12 38 -72 9 -41 18 -76 22 -79 6 -6 1 33 -13 97 -13 62 22 34 96 -78 40 -61 78 -113 83 -117 10 -6 -12 30 -55 91 -31 43 -35 62 -15 69 7 3 -18 35 -63 80 -66 65 -78 73 -100 67z"/>
    <path d="M2070 4224 c-127 -38 -147 -46 -110 -40 66 10 267 74 235 75 -5 0 -62 -16 -125 -35z"/>
    <path d="M2201 4139 c-12 -28 -20 -53 -18 -55 2 -3 14 18 26 47 12 28 20 53 18 55 -2 3 -14 -18 -26 -47z"/>
    <path d="M1815 4151 c-49 -14 -82 -27 -74 -29 9 -1 56 10 105 27 110 36 91 38 -31 2z"/>
    <path d="M1687 4108 c-18 -14 -80 -168 -71 -177 2 -3 7 5 11 17 3 12 10 22 16 22 10 0 8 -44 -7 -250 -5 -63 -5 -64 4 -15 5 28 14 104 20 170 13 150 19 185 34 185 6 0 36 -36 66 -81 30 -44 59 -83 64 -86 12 -8 5 4 -66 107 -60 89 -67 105 -45 113 6 3 7 6 1 6 -5 1 -18 -5 -27 -11z"/>
    <path d="M2480 4045 c101 -110 297 -312 312 -320 14 -9 -107 119 -272 285 -57 58 -75 74 -40 35z"/>
    <path d="M2152 4025 c-17 -37 -14 -45 4 -12 9 16 14 31 11 33 -2 2 -9 -7 -15 -21z"/>
    <path d="M2312 4030 c0 -14 2 -19 5 -12 2 6 2 18 0 25 -3 6 -5 1 -5 -13z"/>
    <path d="M2322 3970 c0 -14 2 -19 5 -12 2 6 2 18 0 25 -3 6 -5 1 -5 -13z"/>
    <path d="M2111 3929 c-12 -28 -20 -53 -18 -55 2 -3 14 19 26 47 12 29 20 54 17 56 -2 2 -13 -19 -25 -48z"/>
    <path d="M2501 3915 c12 -22 31 -49 41 -60 18 -18 18 -17 -1 15 -12 19 -30 46 -42 60 -20 23 -20 22 2 -15z"/>
    <path d="M2331 3924 c0 -11 3 -14 6 -6 3 7 2 16 -1 19 -3 4 -6 -2 -5 -13z"/>
    <path d="M2340 3887 c0 -30 33 -204 41 -216 8 -12 9 -8 5 14 -3 17 -12 68 -20 114 -8 46 -17 86 -20 89 -3 3 -6 2 -6 -1z"/>
    <path d="M1846 3852 c10 -18 29 -45 42 -60 l23 -27 -16 30 c-9 17 -28 44 -42 60 l-25 30 18 -33z"/>
    <path d="M1551 3779 c-17 -45 -30 -84 -27 -86 2 -2 8 9 14 24 6 15 20 52 31 82 11 30 19 56 17 58 -2 2 -18 -33 -35 -78z"/>
    <path d="M2076 3843 c-6 -14 -5 -15 5 -6 7 7 10 15 7 18 -3 3 -9 -2 -12 -12z"/>
    <path d="M2054 3804 c-4 -10 -15 -39 -25 -63 -29 -68 -16 -59 15 10 15 33 25 63 22 66 -3 3 -8 -3 -12 -13z"/>
    <path d="M2580 3796 c0 -7 131 -196 136 -196 5 0 -20 40 -85 138 -37 55 -51 71 -51 58z"/>
    <path d="M1945 3705 c19 -30 35 -58 35 -63 0 -4 -11 -37 -25 -73 -14 -39 -18 -55 -8 -41 23 32 31 27 36 -20 3 -42 4 -42 5 9 2 54 9 83 21 83 4 0 27 -29 50 -65 24 -36 48 -68 53 -71 9 -6 -49 88 -84 135 -10 13 -18 37 -18 53 0 23 -4 29 -15 24 -10 -3 -25 10 -45 39 -43 63 -47 56 -5 -10z"/>
    <path d="M2867 3639 c168 -174 162 -166 164 -244 2 -67 2 -68 8 -21 3 27 11 51 16 53 9 2 261 -253 329 -334 15 -18 32 -33 38 -33 6 0 -68 81 -163 181 -96 99 -229 239 -297 312 -68 72 -131 136 -140 141 -9 5 11 -20 45 -55z"/>
    <path d="M1500 3644 c-6 -16 -23 -57 -37 -92 -14 -35 -23 -65 -20 -68 2 -3 14 21 26 53 13 32 29 73 37 92 8 18 13 36 10 39 -3 2 -10 -8 -16 -24z"/>
    <path d="M2392 3625 c0 -16 2 -22 5 -12 2 9 2 23 0 30 -3 6 -5 -1 -5 -18z"/>
    <path d="M1622 3610 c0 -19 2 -27 5 -17 2 9 2 25 0 35 -3 9 -5 1 -5 -18z"/>
    <path d="M2402 3565 c0 -16 2 -22 5 -12 2 9 2 23 0 30 -3 6 -5 -1 -5 -18z"/>
    <path d="M2740 3554 c12 -21 32 -48 42 -59 11 -11 5 4 -13 33 -18 29 -37 56 -43 59 -5 4 1 -11 14 -33z"/>
    <path d="M13 3510 c0 -30 2 -43 4 -27 2 15 2 39 0 55 -2 15 -4 2 -4 -28z"/>
    <path d="M1613 3520 c0 -25 2 -35 4 -22 2 12 2 32 0 45 -2 12 -4 2 -4 -23z"/>
    <path d="M2411 3514 c0 -11 3 -14 6 -6 3 7 2 16 -1 19 -3 4 -6 -2 -5 -13z"/>
    <path d="M2421 3464 c0 -11 3 -14 6 -6 3 7 2 16 -1 19 -3 4 -6 -2 -5 -13z"/>
    <path d="M1412 3418 c-40 -105 -52 -142 -48 -145 2 -2 11 15 20 37 20 50 39 48 47 -6 3 -21 5 7 5 63 -1 57 -2 103 -2 103 -1 0 -11 -24 -22 -52z"/>
    <path d="M2822 3433 c63 -102 132 -202 136 -198 5 5 -147 235 -155 235 -2 0 6 -17 19 -37z"/>
    <path d="M1898 3438 c-20 -36 -48 -111 -43 -116 2 -3 8 4 11 14 4 10 18 43 30 72 24 53 25 69 2 30z"/>
    <path d="M1966 3368 c-13 -206 -28 -559 -23 -564 2 -3 8 55 12 128 4 73 8 149 10 168 8 76 17 350 12 350 -3 0 -8 -37 -11 -82z"/>
    <path d="M2129 3432 c6 -12 16 -24 22 -28 8 -4 8 -1 0 14 -6 12 -16 24 -22 28 -8 4 -8 1 0 -14z"/>
    <path d="M2435 3395 c9 -69 26 -147 30 -143 5 5 -25 182 -32 188 -3 3 -2 -17 2 -45z"/>
    <path d="M2196 3331 c10 -18 25 -38 32 -44 8 -6 4 6 -8 26 -12 20 -27 40 -32 44 -6 3 -2 -9 8 -26z"/>
    <path d="M1585 3285 c-4 -37 -5 -69 -2 -71 2 -3 8 25 12 61 4 37 5 69 2 71 -2 3 -8 -25 -12 -61z"/>
    <path d="M3022 3290 c0 -14 2 -19 5 -12 2 6 2 18 0 25 -3 6 -5 1 -5 -13z"/>
    <path d="M2258 3242 c38 -61 123 -182 127 -182 6 0 -15 33 -83 133 -29 42 -55 77 -57 77 -3 0 3 -12 13 -28z"/>
    <path d="M1323 3183 c-34 -87 -48 -131 -40 -123 9 9 78 192 74 197 -2 2 -18 -32 -34 -74z"/>
    <path d="M1807 3228 c-38 -78 -109 -249 -105 -254 3 -2 33 60 66 138 34 78 60 143 58 145 -1 2 -10 -12 -19 -29z"/>
    <path d="M3021 3234 c0 -11 3 -14 6 -6 3 7 2 16 -1 19 -3 4 -6 -2 -5 -13z"/>
    <path d="M2970 3214 c0 -5 7 -18 15 -28 8 -11 15 -27 15 -35 -1 -9 -73 -68 -160 -130 -88 -63 -160 -117 -160 -119 0 -6 178 118 279 195 24 18 52 33 61 33 15 0 16 4 6 34 -6 19 -13 33 -15 30 -2 -2 -13 3 -23 13 -10 9 -18 12 -18 7z"/>
    <path d="M1572 3170 c0 -19 2 -27 5 -17 2 9 2 25 0 35 -3 9 -5 1 -5 -18z"/>
    <path d="M1442 3155 c0 -22 3 -62 8 -90 7 -48 7 -49 8 -10 0 22 -3 63 -8 90 -7 48 -7 49 -8 10z"/>
    <path d="M2482 3170 c0 -14 2 -19 5 -12 2 6 2 18 0 25 -3 6 -5 1 -5 -13z"/>
    <path d="M3055 3123 c6 -6 55 -37 110 -68 55 -32 103 -59 108 -62 4 -2 7 -2 7 1 0 3 -33 24 -72 47 -127 73 -163 93 -153 82z"/>
    <path d="M1555 3017 c-4 -42 -5 -81 -3 -89 3 -7 8 24 13 70 4 46 5 85 2 88 -3 3 -8 -28 -12 -69z"/>
    <path d="M2500 3059 c1 -8 7 -43 15 -79 19 -88 19 -93 -5 -87 l-21 5 21 -33 c11 -18 20 -37 20 -43 0 -6 -26 -19 -57 -27 -100 -28 -113 -35 -55 -28 28 3 52 2 52 -3 0 -5 -35 -34 -76 -64 -42 -30 -79 -59 -82 -65 -6 -9 12 3 162 112 32 24 66 43 75 43 9 0 29 -20 44 -45 16 -25 34 -48 39 -52 13 -7 4 9 -29 53 -26 34 -29 54 -10 55 26 2 93 -2 112 -7 16 -4 17 -3 5 5 -8 6 -34 11 -57 11 -54 0 -63 16 -27 47 27 22 27 23 4 12 -14 -6 -33 -19 -43 -27 -10 -9 -21 -12 -26 -6 -5 5 -19 59 -31 119 -20 103 -30 138 -30 104z"/>
    <path d="M1252 2998 c-11 -29 -23 -62 -27 -73 l-7 -20 13 20 c15 23 49 118 44 123 -2 2 -12 -21 -23 -50z"/>
    <path d="M2400 3031 c5 -11 15 -23 21 -27 6 -3 3 5 -6 20 -20 30 -30 35 -15 7z"/>
    <path d="M3495 2978 c39 -41 77 -78 85 -82 17 -8 -118 135 -140 148 -8 5 17 -25 55 -66z"/>
    <path d="M1463 2965 c0 -27 2 -38 4 -22 2 15 2 37 0 50 -2 12 -4 0 -4 -28z"/>
    <path d="M2444 2964 c8 -17 22 -37 32 -45 16 -13 16 -12 6 6 -6 11 -21 31 -32 45 l-21 25 15 -31z"/>
    <path d="M1686 2943 c-6 -14 -5 -15 5 -6 7 7 10 15 7 18 -3 3 -9 -2 -12 -12z"/>
    <path d="M3340 2956 c0 -5 90 -56 99 -56 3 0 -10 10 -29 23 -35 24 -70 40 -70 33z"/>
    <path d="M1646 2859 c-15 -34 -25 -63 -23 -65 4 -5 20 26 42 80 25 64 10 52 -19 -15z"/>
    <path d="M1535 2840 c-4 -39 -5 -73 -2 -76 2 -3 8 27 11 67 4 39 5 73 3 76 -3 2 -8 -28 -12 -67z"/>
    <path d="M1211 2893 c-1 -6 -4 -20 -7 -30 -5 -17 -5 -17 6 0 6 10 9 23 6 30 -3 9 -5 9 -5 0z"/>
    <path d="M1477 2785 c2 -60 8 -139 13 -174 10 -71 8 -78 -24 -91 -17 -7 -17 -9 -3 -9 23 -1 22 -34 -3 -90 -11 -24 -19 -46 -17 -48 2 -2 18 28 36 67 27 60 34 70 51 65 15 -5 18 -3 14 9 -6 17 -6 17 69 36 65 17 54 22 -16 8 -31 -7 -59 -9 -63 -5 -4 4 5 34 20 68 15 33 26 63 23 65 -2 3 -10 -9 -17 -26 -18 -44 -30 -37 -30 17 0 43 -1 45 -15 27 -17 -23 -15 -30 -31 91 l-12 100 5 -110z"/>
    <path d="M3490 2870 c8 -6 52 -33 98 -61 84 -51 99 -75 46 -73 -16 1 -78 4 -139 7 l-110 6 115 -12 c63 -7 115 -16 115 -22 0 -5 -16 -15 -35 -22 -48 -16 -9 -16 60 0 70 17 82 13 70 -19 -13 -34 6 -22 26 17 l15 30 -62 67 c-34 37 -67 69 -72 71 -6 2 -1 -7 11 -19 12 -13 22 -30 22 -37 0 -15 -21 -8 -70 22 -38 24 -114 62 -90 45z"/>
    <path d="M1161 2761 c-32 -83 -39 -111 -19 -76 15 26 58 148 53 153 -1 2 -17 -33 -34 -77z"/>
    <path d="M2835 2785 c61 -7 178 -16 260 -19 l150 -5 -150 13 c-82 7 -199 16 -260 19 l-110 5 110 -13z"/>
    <path d="M1931 2764 c0 -11 3 -14 6 -6 3 7 2 16 -1 19 -3 4 -6 -2 -5 -13z"/>
    <path d="M2315 2750 c-13 -5 -14 -9 -5 -9 8 0 24 4 35 9 13 5 14 9 5 9 -8 0 -24 -4 -35 -9z"/>
    <path d="M3293 2753 c15 -2 39 -2 55 0 15 2 2 4 -28 4 -30 0 -43 -2 -27 -4z"/>
    <path d="M1931 2724 c0 -11 3 -14 6 -6 3 7 2 16 -1 19 -3 4 -6 -2 -5 -13z"/>
    <path d="M2130 2700 c-30 -11 -49 -19 -42 -19 18 -1 122 29 122 35 0 7 -23 2 -80 -16z"/>
    <path d="M2666 2641 c14 -25 35 -54 45 -65 29 -30 24 -54 -13 -65 -31 -10 -31 -10 9 -5 36 5 46 2 65 -18 13 -13 20 -19 16 -14 -18 24 -7 44 30 55 36 10 36 10 -13 5 -50 -5 -50 -5 -78 38 -15 24 -41 59 -58 78 l-30 35 27 -44z"/>
    <path d="M3440 2665 c-25 -7 -38 -13 -30 -14 8 0 38 6 65 13 28 8 41 14 30 14 -11 0 -40 -6 -65 -13z"/>
    <path d="M1927 2657 c-3 -7 -44 -24 -92 -36 -47 -13 -84 -25 -81 -28 2 -3 37 5 77 16 40 11 77 17 81 13 4 -4 9 -32 11 -62 l3 -55 2 61 c1 33 7 65 14 72 9 9 9 15 1 23 -7 7 -12 6 -16 -4z"/>
    <path d="M3230 2622 c-41 -9 -68 -17 -60 -19 8 -2 53 5 100 16 47 11 74 19 60 19 -14 0 -59 -7 -100 -16z"/>
    <path d="M3680 2620 c-6 -11 -8 -20 -6 -20 3 0 10 9 16 20 6 11 8 20 6 20 -3 0 -10 -9 -16 -20z"/>
    <path d="M1097 2593 c-56 -129 -89 -257 -54 -209 8 11 61 30 146 52 73 19 141 39 150 45 14 8 13 9 -4 5 -43 -11 -172 -46 -205 -56 -46 -13 -80 -13 -80 1 0 7 16 52 35 102 35 88 44 134 12 60z"/>
    <path d="M2265 2604 l-30 -26 33 22 c17 12 32 23 32 26 0 7 -4 5 -35 -22z"/>
    <path d="M3118 2593 c7 -3 16 -2 19 1 4 3 -2 6 -13 5 -11 0 -14 -3 -6 -6z"/>
    <path d="M1708 2583 c7 -3 16 -2 19 1 4 3 -2 6 -13 5 -11 0 -14 -3 -6 -6z"/>
    <path d="M3058 2583 c7 -3 16 -2 19 1 4 3 -2 6 -13 5 -11 0 -14 -3 -6 -6z"/>
    <path d="M3657 2583 c-25 -42 -54 -104 -42 -88 19 24 57 95 51 95 -3 0 -7 -3 -9 -7z"/>
    <path d="M3018 2573 c7 -3 16 -2 19 1 4 3 -2 6 -13 5 -11 0 -14 -3 -6 -6z"/>
    <path d="M2082 2475 c-73 -52 -139 -95 -147 -95 -9 0 -15 10 -16 23 -1 20 -2 20 -6 2 -8 -30 -23 -35 -62 -19 -19 8 -36 12 -39 9 -4 -4 11 -11 66 -30 28 -10 5 -35 -111 -117 -67 -48 -135 -99 -152 -114 l-30 -26 35 23 c19 13 60 41 90 64 155 116 182 131 236 130 45 -1 51 1 46 17 -3 12 1 18 14 19 16 0 15 2 -3 9 -13 5 -23 11 -23 14 0 3 54 44 120 91 107 78 128 95 117 95 -2 0 -63 -43 -135 -95z"/>
    <path d="M2968 2563 c7 -3 16 -2 19 1 4 3 -2 6 -13 5 -11 0 -14 -3 -6 -6z"/>
    <path d="M2885 2550 c-27 -7 -27 -8 -5 -8 14 0 36 4 50 8 20 6 21 8 5 8 -11 0 -33 -4 -50 -8z"/>
    <path d="M1418 2503 c7 -3 16 -2 19 1 4 3 -2 6 -13 5 -11 0 -14 -3 -6 -6z"/>
    <path d="M1378 2493 c7 -3 16 -2 19 1 4 3 -2 6 -13 5 -11 0 -14 -3 -6 -6z"/>
    <path d="M1585 2483 c30 -19 106 -45 112 -39 2 2 -20 12 -49 24 -86 33 -94 35 -63 15z"/>
    <path d="M2525 2479 c-49 -11 -114 -24 -143 -30 -30 -6 -51 -13 -48 -16 6 -6 166 24 256 48 85 23 49 22 -65 -2z"/>
    <path d="M3578 2448 c-8 -13 -23 -39 -32 -58 -15 -31 -15 -33 -1 -15 19 23 58 95 51 95 -2 0 -10 -10 -18 -22z"/>
    <path d="M2298 2423 c7 -3 16 -2 19 1 4 3 -2 6 -13 5 -11 0 -14 -3 -6 -6z"/>
    <path d="M2826 2408 c38 -63 242 -344 213 -293 -16 29 -211 305 -215 305 -3 0 -2 -6 2 -12z"/>
    <path d="M2075 2384 l-50 -14 54 6 c54 5 110 24 66 23 -11 -1 -42 -8 -70 -15z"/>
    <path d="M1041 2344 c0 -11 3 -14 6 -6 3 7 2 16 -1 19 -3 4 -6 -2 -5 -13z"/>
    <path d="M1407 2303 c-34 -76 -50 -119 -41 -110 11 10 75 160 70 164 -1 2 -15 -23 -29 -54z"/>
    <path d="M3487 2293 c-42 -71 -59 -103 -53 -103 2 0 23 33 46 73 55 92 52 87 46 87 -2 0 -20 -26 -39 -57z"/>
    <path d="M2045 2301 c22 -10 51 -22 65 -25 14 -3 7 2 -15 13 -22 10 -51 21 -65 24 -14 4 -7 -2 15 -12z"/>
    <path d="M1949 2273 c11 -23 25 -45 31 -48 6 -4 1 11 -11 32 -30 54 -45 66 -20 16z"/>
    <path d="M1060 2295 c0 -19 41 -145 49 -149 5 -3 -2 28 -15 70 -21 70 -34 100 -34 79z"/>
    <path d="M2160 2255 c14 -8 30 -14 35 -14 6 0 -1 6 -15 14 -14 8 -29 14 -35 14 -5 0 1 -6 15 -14z"/>
    <path d="M2246 2221 c23 -10 52 -22 65 -25 13 -3 0 5 -30 19 -29 14 -59 25 -65 25 -6 0 7 -9 30 -19z"/>
    <path d="M2018 2158 c53 -100 125 -218 129 -214 3 2 -15 37 -39 78 -25 40 -59 99 -77 131 -41 71 -52 76 -13 5z"/>
    <path d="M2350 2180 c8 -5 20 -10 25 -10 6 0 3 5 -5 10 -8 5 -19 10 -25 10 -5 0 -3 -5 5 -10z"/>
    <path d="M3408 2158 c-8 -13 -20 -34 -27 -48 -12 -24 -11 -24 4 -5 19 23 48 75 41 75 -2 0 -10 -10 -18 -22z"/>
    <path d="M2391 2166 c9 -9 132 -57 136 -52 4 4 -78 39 -117 51 -14 4 -22 5 -19 1z"/>
    <path d="M1312 2083 c-18 -42 -30 -78 -28 -80 1 -2 18 31 36 72 18 41 31 78 28 80 -2 3 -19 -30 -36 -72z"/>
    <path d="M1559 2093 c-13 -16 -12 -17 4 -4 9 7 17 15 17 17 0 8 -8 3 -21 -13z"/>
    <path d="M1136 2055 c19 -60 39 -121 57 -170 15 -39 16 -40 69 -42 29 -1 44 1 33 4 -38 9 -36 20 6 52 24 17 39 31 33 31 -5 0 -20 -9 -34 -20 -38 -30 -54 -26 -47 13 l6 32 -16 -32 c-9 -18 -22 -33 -29 -33 -7 0 -27 44 -45 100 -17 55 -35 103 -39 105 -5 3 -2 -15 6 -40z"/>
    <path d="M2580 2090 c8 -5 20 -10 25 -10 6 0 3 5 -5 10 -8 5 -19 10 -25 10 -5 0 -3 -5 5 -10z"/>
    <path d="M3064 2063 c8 -16 29 -44 46 -63 27 -30 26 -26 -10 28 -42 64 -62 83 -36 35z"/>
    <path d="M1449 2019 c-82 -59 -121 -91 -89 -74 25 14 180 126 180 131 0 8 -8 3 -91 -57z"/>
    <path d="M2620 2075 c0 -6 29 -18 70 -29 l25 -7 -25 14 c-31 18 -70 30 -70 22z"/>
    <path d="M3291 1963 c-67 -115 -62 -112 -101 -62 -56 73 -66 77 -18 7 20 -30 11 -43 -23 -33 -16 5 -19 4 -14 -5 4 -7 1 -16 -6 -21 -12 -7 -11 -9 1 -10 8 -1 31 -2 51 -4 45 -4 49 -1 86 65 17 30 41 72 53 93 12 20 19 37 16 37 -3 0 -23 -30 -45 -67z"/>
    <path d="M2844 1985 c11 -8 27 -15 35 -15 10 1 7 6 -9 15 -33 19 -50 18 -26 0z"/>
    <path d="M1267 1983 c-4 -3 -7 -11 -7 -17 0 -6 5 -5 12 2 6 6 9 14 7 17 -3 3 -9 2 -12 -2z"/>
    <path d="M2910 1960 c8 -5 20 -10 25 -10 6 0 3 5 -5 10 -8 5 -19 10 -25 10 -5 0 -3 -5 5 -10z"/>
    <path d="M13 1900 c0 -30 2 -43 4 -27 2 15 2 39 0 55 -2 15 -4 2 -4 -28z"/>
    <path d="M2171 1899 c6 -12 9 -29 6 -39 -4 -14 2 -19 27 -22 17 -2 45 0 61 3 27 6 26 7 -13 8 -38 1 -45 5 -63 36 -22 38 -37 49 -18 14z"/>
    <path d="M3044 1906 c11 -9 25 -16 32 -16 7 0 21 -3 31 -6 10 -3 7 1 -7 9 -14 8 -36 18 -50 21 -24 7 -24 6 -6 -8z"/>
    <path d="M1460 1840 c215 -11 393 -11 410 0 9 5 -92 8 -270 8 -251 -1 -268 -2 -140 -8z"/>
    <path d="M2590 1840 c17 -11 93 -10 112 1 6 4 -20 7 -58 8 -48 0 -64 -3 -54 -9z"/>
  </g>
</svg>